<svg width="1536" height="768" viewBox="0 0 1536 768" fill="none" xmlns="http://www.w3.org/2000/svg">
<g clip-path="url(#clip0_28_976)">
<rect width="1536" height="768" fill="black"/>
<rect x="982.79" y="985.463" width="593.911" height="593.911" transform="rotate(148.873 982.79 985.463)" stroke="#28C883" stroke-width="3"/>
<rect x="971.662" y="994.182" width="585.492" height="585.492" transform="rotate(148.026 971.662 994.182)" stroke="#2AC584" stroke-width="3"/>
<rect x="958.835" y="1004.23" width="575.787" height="575.787" transform="rotate(147.048 958.835 1004.23)" stroke="#2BC285" stroke-width="3"/>
<rect x="944.309" y="1015.62" width="564.797" height="564.797" transform="rotate(145.942 944.309 1015.62)" stroke="#2DBE87" stroke-width="3"/>
<rect x="928.083" y="1028.34" width="552.519" height="552.519" transform="rotate(144.705 928.083 1028.34)" stroke="#2FB989" stroke-width="3"/>
<rect x="910.16" y="1042.38" width="538.956" height="538.956" transform="rotate(143.34 910.16 1042.38)" stroke="#32B48B" stroke-width="3"/>
<rect x="890.537" y="1057.77" width="524.107" height="524.107" transform="rotate(141.844 890.537 1057.77)" stroke="#34AF8D" stroke-width="3"/>
<rect x="869.218" y="1074.48" width="507.971" height="507.971" transform="rotate(140.219 869.218 1074.48)" stroke="#37A990" stroke-width="3"/>
<rect x="846.2" y="1092.53" width="490.55" height="490.55" transform="rotate(138.465 846.2 1092.53)" stroke="#3BA393" stroke-width="3"/>
<rect x="821.485" y="1111.9" width="471.842" height="471.842" transform="rotate(136.581 821.485 1111.9)" stroke="#3E9C96" stroke-width="3"/>
<g filter="url(#filter0_b_28_976)">
<rect width="1536" height="768" fill="black" fill-opacity="0.32"/>
</g>
<rect x="-600.768" y="232.112" width="893.09" height="893.09" transform="rotate(-49.376 -600.768 232.112)" stroke="#28B0C8"/>
<rect x="-1052.16" y="442.843" width="772.467" height="772.467" transform="rotate(-49.376 -1052.16 442.843)" stroke="#31B4AB" stroke-width="2.62295"/>
<rect x="-1011.13" y="423.686" width="783.433" height="783.433" transform="rotate(-49.376 -1011.13 423.686)" stroke="#30B4AE" stroke-width="2.47541"/>
<rect x="-970.09" y="404.529" width="794.399" height="794.399" transform="rotate(-49.376 -970.09 404.529)" stroke="#2FB4B0" stroke-width="2.32787"/>
<rect x="-929.054" y="385.371" width="805.364" height="805.364" transform="rotate(-49.376 -929.054 385.371)" stroke="#2FB3B3" stroke-width="2.18033"/>
<rect x="-888.018" y="366.214" width="816.33" height="816.33" transform="rotate(-49.376 -888.018 366.214)" stroke="#2EB3B6" stroke-width="2.03279"/>
<rect x="-846.983" y="347.057" width="827.296" height="827.296" transform="rotate(-49.376 -846.983 347.057)" stroke="#2DB2B8" stroke-width="1.88525"/>
<rect x="-805.947" y="327.899" width="838.261" height="838.261" transform="rotate(-49.376 -805.947 327.899)" stroke="#2CB2BB" stroke-width="1.7377"/>
<rect x="-764.911" y="308.742" width="849.227" height="849.227" transform="rotate(-49.376 -764.911 308.742)" stroke="#2BB2BE" stroke-width="1.59016"/>
<rect x="-723.875" y="289.584" width="860.193" height="860.193" transform="rotate(-49.376 -723.875 289.584)" stroke="#2AB1C0" stroke-width="1.44262"/>
<rect x="-682.839" y="270.426" width="871.159" height="871.159" transform="rotate(-49.376 -682.839 270.426)" stroke="#2AB1C3" stroke-width="1.29508"/>
<rect x="-641.804" y="251.269" width="882.124" height="882.124" transform="rotate(-49.376 -641.804 251.269)" stroke="#29B0C5" stroke-width="1.14754"/>
<rect x="2165.51" y="295.847" width="893.09" height="893.09" transform="rotate(114.605 2165.51 295.847)" stroke="#28B0C8"/>
<rect x="2541.22" y="-31.2653" width="772.467" height="772.467" transform="rotate(114.605 2541.22 -31.2653)" stroke="#31B4AB" stroke-width="2.62295"/>
<rect x="2507.07" y="-1.52795" width="783.433" height="783.433" transform="rotate(114.605 2507.07 -1.52795)" stroke="#30B4AE" stroke-width="2.47541"/>
<rect x="2472.91" y="28.2096" width="794.399" height="794.399" transform="rotate(114.605 2472.91 28.2096)" stroke="#2FB4B0" stroke-width="2.32787"/>
<rect x="2438.75" y="57.9472" width="805.364" height="805.364" transform="rotate(114.605 2438.75 57.9472)" stroke="#2FB3B3" stroke-width="2.18033"/>
<rect x="2404.6" y="87.6848" width="816.33" height="816.33" transform="rotate(114.605 2404.6 87.6848)" stroke="#2EB3B6" stroke-width="2.03279"/>
<rect x="2370.44" y="117.422" width="827.296" height="827.296" transform="rotate(114.605 2370.44 117.422)" stroke="#2DB2B8" stroke-width="1.88525"/>
<rect x="2336.29" y="147.16" width="838.261" height="838.261" transform="rotate(114.605 2336.29 147.16)" stroke="#2CB2BB" stroke-width="1.7377"/>
<rect x="2302.13" y="176.897" width="849.227" height="849.227" transform="rotate(114.605 2302.13 176.897)" stroke="#2BB2BE" stroke-width="1.59016"/>
<rect x="2267.98" y="206.635" width="860.193" height="860.193" transform="rotate(114.605 2267.98 206.635)" stroke="#2AB1C0" stroke-width="1.44262"/>
<rect x="2233.82" y="236.373" width="871.159" height="871.159" transform="rotate(114.605 2233.82 236.373)" stroke="#2AB1C3" stroke-width="1.29508"/>
<rect x="2199.66" y="266.11" width="882.124" height="882.124" transform="rotate(114.605 2199.66 266.11)" stroke="#29B0C5" stroke-width="1.14754"/>
<rect x="825.769" y="1181.04" width="1358.38" height="909.437" transform="rotate(-164.625 825.769 1181.04)" fill="url(#paint0_linear_28_976)"/>
<rect x="719" y="35.8157" width="1046.93" height="909.437" transform="rotate(-28.2055 719 35.8157)" fill="url(#paint1_linear_28_976)"/>
<g filter="url(#filter1_b_28_976)">
<rect width="1536" height="768" fill="black" fill-opacity="0.32"/>
</g>
</g>
<defs>
<filter id="filter0_b_28_976" x="-10.5" y="-10.5" width="1557" height="789" filterUnits="userSpaceOnUse" color-interpolation-filters="sRGB">
<feFlood flood-opacity="0" result="BackgroundImageFix"/>
<feGaussianBlur in="BackgroundImageFix" stdDeviation="5.25"/>
<feComposite in2="SourceAlpha" operator="in" result="effect1_backgroundBlur_28_976"/>
<feBlend mode="normal" in="SourceGraphic" in2="effect1_backgroundBlur_28_976" result="shape"/>
</filter>
<filter id="filter1_b_28_976" x="-8" y="-8" width="1552" height="784" filterUnits="userSpaceOnUse" color-interpolation-filters="sRGB">
<feFlood flood-opacity="0" result="BackgroundImageFix"/>
<feGaussianBlur in="BackgroundImageFix" stdDeviation="4"/>
<feComposite in2="SourceAlpha" operator="in" result="effect1_backgroundBlur_28_976"/>
<feBlend mode="normal" in="SourceGraphic" in2="effect1_backgroundBlur_28_976" result="shape"/>
</filter>
<linearGradient id="paint0_linear_28_976" x1="1504.96" y1="1181.04" x2="1504.96" y2="2090.48" gradientUnits="userSpaceOnUse">
<stop/>
<stop offset="1" stop-opacity="0"/>
</linearGradient>
<linearGradient id="paint1_linear_28_976" x1="1242.47" y1="35.8157" x2="1242.47" y2="945.252" gradientUnits="userSpaceOnUse">
<stop/>
<stop offset="1" stop-opacity="0"/>
</linearGradient>
<clipPath id="clip0_28_976">
<rect width="1536" height="768" fill="white"/>
</clipPath>
</defs>
</svg>
